<?xml version="1.0" encoding="utf-8"?>
<!-- Generator: Adobe Illustrator 19.2.0, SVG Export Plug-In . SVG Version: 6.00 Build 0)  -->
<svg version="1.0" id="Layer_1" xmlns="http://www.w3.org/2000/svg" xmlns:xlink="http://www.w3.org/1999/xlink" x="0px" y="0px"
	 viewBox="0 0 188.2 85.2" style="enable-background:new 0 0 188.2 85.2;" xml:space="preserve">
<style type="text/css">
	.st0{fill:#ED1B24;}
	.st1{fill:#FFFFFF;}
	.st2{fill:none;stroke:#FFFFFF;stroke-width:1.6667;}
</style>
<g>
	<rect class="st0" width="188.2" height="85.2"/>
	<polygon class="st1" points="162.5,12.1 173.1,12.1 173.1,62 182,62 182,74.6 162.5,74.6 	"/>
	<g>
		<circle class="st2" cx="178.9" cy="15.4" r="4"/>
		<path class="st1" d="M177.4,17.5v-4.2h1.9c0.4,0,0.7,0,0.9,0.1c0.2,0.1,0.3,0.2,0.5,0.4c0.1,0.2,0.2,0.4,0.2,0.6
			c0,0.3-0.1,0.5-0.3,0.8c-0.2,0.2-0.5,0.3-0.9,0.4c0.1,0.1,0.3,0.1,0.3,0.2c0.2,0.1,0.3,0.3,0.5,0.6l0.7,1.1h-0.7l-0.6-0.9
			c-0.2-0.3-0.3-0.4-0.4-0.6s-0.2-0.2-0.3-0.3c-0.1-0.1-0.2-0.1-0.3-0.1c-0.1,0-0.2,0-0.3,0h-0.6v1.9H177.4z M177.9,15.1h1.2
			c0.3,0,0.5,0,0.6-0.1c0.1-0.1,0.3-0.1,0.3-0.3c0.1-0.1,0.1-0.2,0.1-0.4c0-0.2-0.1-0.4-0.2-0.5c-0.1-0.1-0.4-0.2-0.7-0.2h-1.3V15.1
			z"/>
	</g>
	<path class="st1" d="M7.7,74.4V12.1h14.2l5,26.1l5.7-26.1h13.7v56.1l8.9-56.1h14L78,68.2V12.3h18.6c0,0,6.4,1.1,9.6,10.1l-1.4-10.3
		h11.2l5.3,32.3l5.5-32.1h31.6V24H149v12.8h8.9v13.1h-8.7v11.9h9.2v12.6H138v-60l-10.5,60h-12.6l-6.6-39.8c0,0-1.1,11-7.3,16l8,23.8
		H98l-7.8-20.8v20.8H68l-1.1-6h-8.5l-1.8,6H35.4V51.5L30,74.4h-5.7l-5-22.7v22.4L7.7,74.4z M65.7,56.3l-3.2-19l-2.7,19H65.7z
		 M90,41.9c7.6-0.5,6.9-9.8,6.9-9.8c-1.1-9.2-6.9-8.7-6.9-8.7V41.9z"/>
</g>
</svg>
